# xmcd CD database file
#
# Track frame offsets:
#	150
#	24575
#	38205
#	62550
#	87520
#	104235
#	130970
#	147680
#	174450
#	185735
#	199475
#	209795
#	223470
#	233500
#	244845
#	257240
#	273330
#	287360
#	300115
#	312250
#
# Disc length: 4297 seconds
#
# Revision: 0
# Processed by: cddbd v1.5.2PL0 Copyright (c) Steve Scherf et al.
# Submitted via: CdAid (MTCDDB.DLL V2003.12.21)
#
DISCID=4010c714
DTITLE=Cláudia - 20 Preferidas
DYEAR=1996
DGENRE=Country
TTITLE0=Aquarela do Brasil
TTITLE1=Bala com Bala
TTITLE2=O tempo e o Vento
TTITLE3=Não Chores por mim Argentina
TTITLE4=Luz da Vida
TTITLE5=Na Baixa do Sapateiro
TTITLE6=Coração de Estudante
TTITLE7=Preciso Aprender a Ser Só
TTITLE8=Tristeza Vai Embora
TTITLE9=Carolina
TTITLE10=Amanhã, Ninguém Sabe
TTITLE11=Vento de Maio
TTITLE12=Ninguém Dá O Que Não Tem
TTITLE13=Mas Que Nada
TTITLE14=Mensagem
TTITLE15=Pranto
TTITLE16=Não Se Aprende Na Escola
TTITLE17=The Shadow Of Your Smile
TTITLE18=Acalanto
TTITLE19=Silêncio Para Um Rancho Passar
EXTD=ID3G:   2 YEAR: 1996
EXTT0=
EXTT1=
EXTT2=
EXTT3=
EXTT4=
EXTT5=
EXTT6=
EXTT7=
EXTT8=
EXTT9=
EXTT10=
EXTT11=
EXTT12=
EXTT13=
EXTT14=
EXTT15=
EXTT16=
EXTT17=
EXTT18=
EXTT19=
PLAYORDER=
